<?xml version="1.0" encoding="utf-8" ?>
<svg xmlns="http://www.w3.org/2000/svg" xmlns:xlink="http://www.w3.org/1999/xlink" width="400" height="400">
	<path fill="#145CEC" transform="scale(0.390625 0.390625)" d="M237.765 490.706C244.287 490.274 250.876 490.469 257.411 490.493C257.165 508.038 257.38 525.573 257.421 543.12C257.443 552.723 257.781 562.461 257.107 572.04C245.583 571.654 233.531 573.15 222.194 575.203C181.073 582.647 143.226 609.281 119.63 643.374C100.81 670.567 91.9952 698.919 90.4103 731.807C90.2583 734.96 88.9139 738.34 89.0786 741.416C89.2328 744.294 90.1648 747.268 90.6253 750.124C91.4148 755.02 91.9601 759.959 92.861 764.835Q93.2337 766.869 93.6571 768.894Q94.0805 770.918 94.5543 772.931Q95.0281 774.944 95.552 776.945Q96.0759 778.946 96.6495 780.933Q97.2232 782.92 97.8462 784.892Q98.4692 786.864 99.1413 788.82Q99.8134 790.776 100.534 792.714Q101.255 794.653 102.024 796.573Q102.792 798.493 103.609 800.393Q104.425 802.293 105.289 804.172Q106.153 806.051 107.063 807.908Q107.973 809.765 108.93 811.599Q109.886 813.433 110.888 815.242Q111.889 817.052 112.936 818.835Q113.983 820.619 115.074 822.376Q116.164 824.133 117.299 825.863Q118.433 827.592 119.61 829.292Q120.787 830.993 122.007 832.664Q123.226 834.334 124.486 835.974Q125.747 837.613 127.048 839.221Q128.349 840.829 129.69 842.403Q131.03 843.978 132.41 845.519Q133.79 847.059 135.207 848.565Q136.625 850.071 138.08 851.541Q139.535 853.011 141.026 854.444Q142.517 855.878 144.043 857.273Q145.569 858.669 147.13 860.026Q148.691 861.383 150.285 862.701Q151.879 864.018 153.505 865.296Q155.132 866.573 156.789 867.81Q158.447 869.046 160.135 870.241Q161.824 871.436 163.541 872.588Q165.169 873.684 166.824 874.74Q168.478 875.795 170.158 876.811Q171.837 877.826 173.541 878.801Q175.244 879.776 176.971 880.709Q178.697 881.642 180.446 882.533Q182.195 883.425 183.964 884.273Q185.734 885.122 187.524 885.928Q189.313 886.734 191.122 887.496Q192.93 888.258 194.757 888.976Q196.583 889.695 198.427 890.369Q200.27 891.043 202.129 891.672Q203.988 892.301 205.862 892.885Q207.735 893.47 209.622 894.008Q211.51 894.547 213.409 895.04Q215.309 895.533 217.22 895.98Q219.131 896.427 221.053 896.828Q222.974 897.228 224.904 897.582Q226.835 897.936 228.773 898.244Q230.712 898.551 232.657 898.812Q234.602 899.072 236.553 899.285Q238.504 899.499 240.46 899.665Q242.415 899.831 244.375 899.95Q246.334 900.069 248.295 900.14Q250.256 900.212 252.219 900.236Q254.181 900.26 256.144 900.236Q258.106 900.213 260.068 900.142Q262.029 900.072 263.988 899.953Q265.947 899.835 267.903 899.67Q269.858 899.505 271.81 899.292Q273.761 899.079 275.706 898.819Q277.651 898.56 279.59 898.253Q281.528 897.947 283.459 897.593Q285.435 897.199 287.402 896.757Q289.368 896.316 291.323 895.827Q293.278 895.338 295.221 894.802Q297.163 894.266 299.092 893.684Q301.022 893.101 302.936 892.473Q304.851 891.844 306.75 891.169Q308.648 890.494 310.531 889.774Q312.413 889.053 314.277 888.288Q316.141 887.522 317.986 886.712Q319.831 885.902 321.656 885.047Q323.481 884.193 325.285 883.295Q327.089 882.396 328.871 881.455Q330.653 880.513 332.411 879.529Q334.17 878.545 335.904 877.519Q337.639 876.493 339.348 875.425Q341.057 874.357 342.74 873.249Q344.423 872.14 346.078 870.991Q347.734 869.842 349.361 868.654Q350.989 867.466 352.587 866.238Q354.186 865.011 355.754 863.745Q357.322 862.48 358.86 861.177Q360.397 859.874 361.903 858.534Q363.408 857.195 364.881 855.819Q366.354 854.444 367.793 853.033Q369.232 851.623 370.637 850.178Q372.042 848.733 373.411 847.255Q374.781 845.776 376.114 844.265Q377.448 842.755 378.744 841.212Q380.041 839.669 381.3 838.096Q382.559 836.523 383.78 834.919Q385.001 833.316 386.183 831.684Q387.365 830.051 388.507 828.391C404.074 805.438 414.169 780.43 417.891 752.864C418.521 748.201 419.357 743.449 419.504 738.746C419.964 724.083 417.992 708.266 415.23 693.903C432.425 694.253 449.68 693.948 466.879 693.939Q525.802 694.105 584.723 693.551L646.082 693.524C659.953 693.569 674.007 694.092 687.835 692.987C692.753 685.388 698.287 678.087 704.656 671.648C719.821 656.317 737.981 646.954 759.266 643.709C763.264 643.099 767.409 642.336 771.459 642.327C794.99 642.277 819.051 652.104 835.71 668.631C854.079 686.855 863.79 709.463 863.821 735.383C863.853 760.984 853.481 784.393 835.587 802.472C829.699 808.109 822.367 813.035 815.194 816.832Q814.202 817.361 813.197 817.865Q812.193 818.37 811.176 818.849Q810.159 819.329 809.131 819.783Q808.103 820.238 807.064 820.667Q806.025 821.096 804.976 821.5Q803.927 821.904 802.868 822.282Q801.809 822.659 800.742 823.011Q799.674 823.363 798.598 823.689Q797.522 824.014 796.438 824.313Q795.355 824.612 794.264 824.885Q793.174 825.157 792.077 825.403Q790.98 825.648 789.877 825.867Q788.774 826.086 787.667 826.277Q786.559 826.469 785.447 826.633Q784.335 826.798 783.219 826.935Q782.103 827.072 780.984 827.182Q779.866 827.291 778.745 827.374Q777.623 827.456 776.501 827.511Q775.378 827.565 774.254 827.593Q773.13 827.62 772.006 827.62Q770.882 827.62 769.758 827.592Q768.634 827.564 767.512 827.509Q766.389 827.453 765.268 827.37Q764.147 827.288 763.028 827.177Q761.909 827.067 760.793 826.929Q759.678 826.792 758.566 826.627Q757.454 826.462 756.346 826.27Q755.239 826.078 754.136 825.859Q753.034 825.639 751.937 825.393Q750.84 825.147 749.749 824.874Q748.659 824.601 747.575 824.302Q746.492 824.002 745.416 823.676C719.865 815.728 701.153 798.878 688.829 775.244C680.691 774.489 672.175 774.846 663.996 774.851L622.195 774.941L497.061 774.896C494.203 785.604 491.992 796.541 488.671 807.111Q486.71 813.267 484.437 819.315Q482.165 825.363 479.587 831.287Q477.009 837.211 474.132 842.997Q471.255 848.782 468.087 854.412Q464.919 860.043 461.468 865.505Q458.017 870.968 454.293 876.246Q450.568 881.526 446.578 886.608Q442.589 891.69 438.346 896.562Q436.342 898.881 434.28 901.148Q432.219 903.416 430.101 905.631Q427.983 907.847 425.811 910.008Q423.638 912.17 421.412 914.277Q419.186 916.384 416.909 918.434Q414.631 920.484 412.302 922.477Q409.974 924.469 407.596 926.403Q405.218 928.337 402.793 930.211Q400.368 932.084 397.896 933.897Q395.425 935.709 392.909 937.459Q390.393 939.209 387.834 940.896Q385.275 942.582 382.675 944.204Q380.074 945.826 377.434 947.382Q374.794 948.938 372.116 950.428Q369.437 951.918 366.723 953.34Q364.008 954.763 361.258 956.116Q358.509 957.47 355.726 958.755Q352.944 960.04 350.13 961.254Q347.316 962.469 344.473 963.613Q341.63 964.757 338.759 965.829Q335.888 966.902 332.991 967.902Q330.094 968.902 327.173 969.829Q324.252 970.757 321.309 971.611Q318.365 972.465 315.401 973.245Q312.438 974.025 309.455 974.73Q306.473 975.436 303.474 976.067Q300.475 976.698 297.461 977.253Q294.447 977.809 291.42 978.289Q288.393 978.769 285.355 979.173Q282.317 979.577 279.27 979.905Q276.223 980.233 273.168 980.484Q270.114 980.736 267.054 980.911Q264.124 981.073 261.19 981.162Q258.257 981.252 255.322 981.271Q252.388 981.289 249.453 981.235Q246.519 981.181 243.587 981.055Q240.655 980.93 237.727 980.732Q234.799 980.535 231.877 980.266Q228.954 979.997 226.039 979.657Q223.124 979.316 220.219 978.905Q217.313 978.493 214.418 978.01Q211.523 977.527 208.641 976.974Q205.759 976.42 202.892 975.797Q200.024 975.173 197.172 974.479Q194.321 973.785 191.487 973.021Q188.654 972.258 185.839 971.425Q183.025 970.593 180.232 969.692Q177.439 968.79 174.669 967.821Q171.899 966.852 169.154 965.815Q166.408 964.778 163.689 963.674Q160.97 962.57 158.279 961.4Q155.587 960.23 152.925 958.995Q150.263 957.759 147.632 956.458Q145.001 955.158 142.403 953.794Q139.805 952.429 137.241 951.002Q134.677 949.574 132.148 948.084Q129.62 946.594 127.129 945.043Q124.638 943.491 122.185 941.88Q119.733 940.267 117.321 938.596Q114.909 936.924 112.538 935.194Q110.167 933.464 107.84 931.677Q105.512 929.889 103.229 928.045Q100.946 926.201 98.7091 924.302Q96.4719 922.402 94.2819 920.449Q92.3271 918.741 90.4081 916.993Q88.4892 915.244 86.6069 913.456Q84.7247 911.668 82.88 909.842Q81.0353 908.015 79.229 906.151Q77.4226 904.286 75.6554 902.385Q73.8881 900.483 72.1608 898.545Q70.4334 896.607 68.7466 894.634Q67.0599 892.661 65.4145 890.653Q63.7691 888.645 62.1658 886.603Q60.5624 884.561 59.0018 882.487Q57.4412 880.412 55.924 878.306Q54.4069 876.199 52.9338 874.061Q51.4607 871.924 50.0323 869.756Q48.6039 867.588 47.2209 865.391Q45.8378 863.195 44.5007 860.969Q43.1635 858.744 41.8729 856.492Q40.5823 854.239 39.3387 851.961Q38.0952 849.682 36.8992 847.378Q35.7032 845.074 34.5553 842.745Q33.4075 840.417 32.3082 838.065Q31.209 835.713 30.1588 833.339Q29.1086 830.965 28.108 828.57Q27.1073 826.174 26.1566 823.759Q25.206 821.343 24.3057 818.908Q23.4053 816.473 22.5558 814.02Q21.7063 811.567 20.9079 809.097Q20.1094 806.627 19.3625 804.14Q18.6156 801.654 17.9204 799.153Q17.2253 796.652 16.5822 794.137Q15.9392 791.621 15.3485 789.094Q14.7579 786.566 14.2198 784.026Q13.6818 781.486 13.1966 778.936C10.8187 766.086 9.91438 752.991 9.12408 739.961C8.50552 729.763 9.48314 719.969 10.5452 709.852Q10.7938 707.476 11.0889 705.105Q11.3841 702.735 11.7257 700.371Q12.0673 698.006 12.4553 695.649Q12.8433 693.292 13.2774 690.943Q13.7116 688.594 14.1917 686.254Q14.6719 683.914 15.1979 681.583Q15.724 679.253 16.2956 676.934Q16.8673 674.614 17.4843 672.306Q18.1014 669.998 18.7637 667.703Q19.4259 665.408 20.1331 663.126Q20.8402 660.844 21.5921 658.577Q22.3439 656.309 23.1401 654.057Q23.9362 651.805 24.7765 649.569Q25.6167 647.332 26.5007 645.113Q27.3846 642.894 28.312 640.692Q29.2394 638.491 30.2097 636.308Q31.1801 634.125 32.1932 631.962Q33.2062 629.798 34.2615 627.655Q35.3169 625.512 36.414 623.39Q37.5112 621.268 38.6498 619.168Q39.7884 617.068 40.968 614.99Q42.1477 612.913 43.3678 610.859Q44.588 608.805 45.8482 606.776Q47.1085 604.747 48.4083 602.742Q49.7081 600.738 51.047 598.76Q52.3859 596.781 53.7634 594.83Q55.1409 592.878 56.5564 590.954Q57.972 589.029 59.425 587.133Q60.878 585.237 62.368 583.37Q63.858 581.502 65.3843 579.665Q66.9106 577.827 68.4727 576.02Q70.0348 574.212 71.6321 572.436C112.656 526.185 175.943 494.501 237.765 490.706Z"/>
	<path fill="#145CEC" transform="scale(0.390625 0.390625)" d="M506.803 193.196C506.936 193.176 507.068 193.15 507.201 193.137C530.435 190.961 553.527 199.523 571.428 213.985C590.892 229.71 604.366 253.832 606.878 278.836C608.91 299.052 602.157 325.079 589.274 340.859C599.456 356.815 608.634 374.43 618.119 390.927C631.187 413.655 644.781 436.08 657.648 458.926C666.808 475.19 675.575 491.953 685.609 507.686C695.243 504.538 704.517 500.668 714.329 498.011C748.886 488.651 786.329 488.934 821.193 496.496C881.389 509.552 940.984 547.519 974.395 599.945C1011.32 657.89 1024.85 723.491 1009.71 791.062Q1009.04 794.006 1008.3 796.932Q1007.56 799.858 1006.75 802.765Q1005.93 805.671 1005.05 808.557Q1004.16 811.443 1003.21 814.306Q1002.25 817.169 1001.22 820.007Q1000.19 822.845 999.097 825.657Q998 828.469 996.833 831.253Q995.667 834.037 994.431 836.791Q993.196 839.545 991.893 842.268Q990.589 844.991 989.219 847.68Q987.849 850.37 986.412 853.024Q984.976 855.679 983.474 858.298Q981.972 860.916 980.405 863.496Q978.839 866.076 977.209 868.617Q975.579 871.157 973.887 873.657Q972.194 876.156 970.441 878.613Q968.687 881.07 966.872 883.482Q965.058 885.895 963.185 888.261Q961.311 890.628 959.38 892.948Q957.448 895.267 955.46 897.538Q953.471 899.809 951.427 902.03Q949.383 904.251 947.284 906.42Q945.186 908.59 943.034 910.707Q940.882 912.824 938.678 914.887Q936.475 916.95 934.221 918.957Q931.967 920.965 929.664 922.916Q927.36 924.867 925.01 926.76Q922.659 928.654 920.262 930.488Q917.865 932.323 915.423 934.098Q912.981 935.872 910.496 937.586Q908.011 939.299 905.485 940.95Q902.958 942.602 900.391 944.19Q897.833 945.798 895.236 947.342Q892.639 948.887 890.004 950.366Q887.369 951.845 884.699 953.258Q882.028 954.671 879.323 956.017Q876.618 957.363 873.88 958.642Q871.143 959.92 868.374 961.13Q865.605 962.34 862.808 963.481Q860.01 964.622 857.185 965.693Q854.359 966.763 851.508 967.763Q848.657 968.763 845.782 969.693Q842.906 970.621 840.009 971.478Q837.112 972.336 834.194 973.12Q831.276 973.905 828.34 974.617Q825.403 975.329 822.45 975.968Q819.497 976.606 816.529 977.171Q813.561 977.736 810.579 978.227Q807.598 978.718 804.605 979.135Q801.613 979.551 798.611 979.893Q795.609 980.235 792.599 980.502Q789.589 980.77 786.574 980.962Q783.559 981.154 780.539 981.271Q777.52 981.389 774.499 981.431Q771.478 981.473 768.457 981.44Q765.435 981.406 762.416 981.298Q759.396 981.19 756.38 981.006Q753.364 980.823 750.354 980.565Q747.344 980.306 744.34 979.973Q741.337 979.64 738.344 979.232Q735.35 978.825 732.367 978.342Q729.384 977.86 726.414 977.304Q723.445 976.748 720.49 976.118Q717.534 975.488 714.596 974.785C691.987 969.606 671.037 960.55 651.049 948.857C614.804 927.652 586.509 901.024 564.084 865.275C560.85 860.794 558.158 855.64 555.3 850.886C560.268 848.488 564.653 844.961 569.279 841.977L607.017 817.172C611.958 813.948 617.166 809.876 622.553 807.56C628.504 816.969 634.079 826.622 640.89 835.459C660.162 860.463 687.173 879.118 716.456 890.44C723.851 893.299 731.641 894.971 739.38 896.606C775.532 904.243 807.439 899.299 840.961 884.159C871.208 870.498 897.957 844.004 914.003 815.135C920.197 803.992 924.945 791.749 928.511 779.516C930.279 773.448 931.575 767.083 932.482 760.821C933.476 753.965 933.88 747.37 936.363 740.84C936.177 739.988 936.013 739.129 935.817 738.279C933.803 729.513 934.084 719.996 932.662 711.035Q932.254 708.418 931.762 705.816Q931.27 703.214 930.693 700.629Q930.117 698.044 929.456 695.479Q928.796 692.914 928.053 690.372Q927.31 687.83 926.485 685.314Q925.66 682.797 924.754 680.308Q923.847 677.82 922.861 675.362Q921.874 672.904 920.808 670.48Q919.742 668.055 918.599 665.667Q917.455 663.278 916.234 660.928Q915.013 658.578 913.716 656.268Q912.42 653.959 911.049 651.693Q909.679 649.427 908.235 647.206Q906.791 644.986 905.276 642.813Q903.762 640.641 902.177 638.519Q900.593 636.397 898.94 634.327C872.988 601.809 834.213 578.284 792.433 573.679C786.276 573.001 779.896 572.268 773.706 572.173C769.313 572.105 764.806 572.61 760.426 572.947C732.792 575.075 706.819 583.322 683.5 598.579C674.506 604.463 666.354 611.592 657.986 618.308C645.325 602.322 636.197 580.303 625.537 562.48L559.579 449.758L535.9 409.313C530.756 400.531 524.704 391.302 520.765 381.931C499.601 382.645 475.982 376.295 459.19 363.165C438.865 347.274 424.283 325.332 421.106 299.351C418.097 274.741 423.811 248.851 439.353 229.139C456.875 206.917 479.226 196.343 506.803 193.196Z"/>
	<path fill="#145CEC" transform="scale(0.390625 0.390625)" d="M503.766 42.7098C503.918 42.6827 504.07 42.6492 504.224 42.6287C512.37 41.5412 524.05 42.559 532.414 43.2817Q536.556 43.6124 540.685 44.0815Q544.814 44.5507 548.925 45.1578Q553.036 45.7649 557.124 46.5092Q561.212 47.2536 565.273 48.1344Q569.334 49.0152 573.363 50.0315Q577.392 51.0477 581.385 52.1983Q585.378 53.3489 589.33 54.6325Q593.283 55.9161 597.19 57.3312Q601.097 58.7464 604.954 60.2916Q608.812 61.8368 612.615 63.5102Q616.419 65.1836 620.164 66.9835Q623.91 68.7833 627.593 70.7075Q631.276 72.6317 634.892 74.6781Q638.509 76.7245 642.055 78.8908Q645.601 81.0572 649.072 83.341Q652.544 85.6248 655.937 88.0236C712.305 128.322 746.242 187.416 757.053 255.443C757.879 260.641 758.068 266.062 758.419 271.313C761.733 320.896 748.21 380.836 718.945 421.5C696.243 406.585 674.419 390.018 652.181 374.392C659.314 363.189 665.012 349.609 669.18 337.012C673.56 323.774 676.746 309.058 677.464 295.106C678.724 270.59 672.079 239.728 661.016 217.814C639.74 175.666 607.95 146.589 562.791 131.956Q560.883 131.356 558.96 130.803Q557.038 130.25 555.103 129.744Q553.167 129.238 551.22 128.78Q549.273 128.321 547.316 127.91Q545.358 127.498 543.391 127.135Q541.424 126.772 539.448 126.456Q537.473 126.141 535.491 125.874Q533.508 125.607 531.52 125.388Q529.532 125.169 527.539 124.999Q525.545 124.828 523.549 124.707Q521.552 124.585 519.553 124.512Q517.554 124.439 515.554 124.415Q513.554 124.39 511.554 124.415Q509.553 124.439 507.554 124.512Q505.555 124.585 503.559 124.707Q501.562 124.829 499.569 124.999Q497.576 125.169 495.587 125.388Q493.599 125.607 491.617 125.874Q489.634 126.141 487.659 126.457Q485.684 126.772 483.717 127.135Q481.749 127.499 479.792 127.91Q477.834 128.321 475.887 128.78Q473.94 129.239 472.005 129.745Q470.07 130.251 468.147 130.804Q466.225 131.357 464.316 131.957Q462.408 132.556 460.515 133.202Q458.622 133.848 456.745 134.54Q454.868 135.232 453.008 135.969Q451.149 136.707 449.308 137.489Q447.467 138.272 445.646 139.099Q443.824 139.926 442.024 140.797Q440.223 141.668 438.444 142.583Q436.645 143.531 434.87 144.523Q433.094 145.515 431.343 146.549Q429.592 147.584 427.867 148.66Q426.141 149.737 424.443 150.855Q422.744 151.973 421.073 153.132Q419.401 154.291 417.759 155.49Q416.116 156.689 414.503 157.928Q412.89 159.166 411.308 160.443Q409.725 161.721 408.174 163.036Q406.623 164.351 405.104 165.704Q403.585 167.056 402.099 168.445Q400.614 169.834 399.162 171.258Q397.711 172.682 396.294 174.142Q394.877 175.601 393.496 177.094Q392.116 178.587 390.771 180.113Q389.427 181.639 388.12 183.197Q386.813 184.755 385.545 186.345Q384.276 187.934 383.046 189.554Q381.816 191.174 380.626 192.823Q379.436 194.472 378.286 196.149Q377.136 197.826 376.027 199.531Q374.918 201.236 373.85 202.967Q372.783 204.698 371.758 206.454Q370.733 208.211 369.751 209.992Q368.768 211.772 367.83 213.576Q366.891 215.381 365.996 217.207Q365.101 219.033 364.251 220.88Q363.401 222.728 362.595 224.595Q361.79 226.463 361.03 228.349Q360.271 230.236 359.557 232.14Q358.843 234.044 358.175 235.965Q357.508 237.886 356.887 239.823C343.996 280.163 348.747 325.233 368.23 362.63Q369.228 364.505 370.271 366.356Q371.314 368.206 372.401 370.031Q373.489 371.855 374.62 373.653Q375.751 375.451 376.926 377.221Q378.1 378.991 379.317 380.732Q380.534 382.473 381.793 384.184Q383.052 385.895 384.352 387.575Q385.651 389.255 386.992 390.903Q388.332 392.551 389.711 394.166Q391.091 395.781 392.509 397.362Q393.928 398.943 395.384 400.49Q396.84 402.036 398.334 403.547Q399.827 405.057 401.356 406.531Q402.886 408.006 404.45 409.442Q406.015 410.879 407.614 412.277Q409.213 413.675 410.845 415.035Q412.477 416.394 414.142 417.713Q415.807 419.032 417.503 420.311Q419.199 421.589 420.926 422.827Q422.653 424.064 424.409 425.259Q426.165 426.454 427.95 427.606Q429.734 428.758 431.546 429.866Q433.358 430.975 435.196 432.039Q437.035 433.104 438.898 434.123Q440.761 435.143 442.649 436.117Q444.537 437.091 446.447 438.019Q448.358 438.947 450.291 439.829Q452.223 440.71 454.176 441.545Q456.13 442.379 458.103 443.166Q460.076 443.953 462.067 444.692Q464.059 445.431 466.067 446.122Q468.076 446.812 470.101 447.454C462.2 462.139 453.312 476.401 444.791 490.736C441.261 496.675 438.123 502.824 434.565 508.741L369.663 619.572L349.258 653.939C343.951 662.995 338.973 672.307 333.045 680.975C334.893 685.541 337.757 689.811 339.797 694.34C344.4 704.56 348.408 719.975 348.822 731.281C348.962 735.124 347.926 739.164 347.499 742.993C344.839 766.791 337.243 784.071 320.292 801.327C303.643 818.276 279.278 827.715 255.65 827.835C230.483 827.963 207.173 819.098 189.205 801.343C173.123 785.453 161.787 760.028 161.808 737.313C161.831 712.045 171.171 686.469 189.365 668.686C208.997 649.499 234.673 641.05 261.741 641.413C264.944 634.574 269.345 627.893 273.188 621.379Q285.643 600.28 298.624 579.502C309.262 562.251 319.27 544.567 329.713 527.19C339.366 511.126 349.452 495.358 358.902 479.159L358.257 478.658C351.068 472.999 344.577 466.031 338.279 459.418Q336.554 457.638 334.865 455.824Q333.176 454.01 331.524 452.163Q329.872 450.315 328.257 448.435Q326.643 446.554 325.066 444.642Q323.49 442.729 321.952 440.785Q320.415 438.841 318.916 436.867Q317.418 434.893 315.96 432.889Q314.502 430.884 313.084 428.851Q311.666 426.818 310.29 424.757Q308.913 422.696 307.579 420.608Q306.244 418.519 304.951 416.405Q303.659 414.29 302.409 412.149Q301.159 410.009 299.953 407.844Q298.747 405.679 297.584 403.49Q296.421 401.301 295.303 399.089Q294.185 396.877 293.111 394.643Q292.037 392.41 291.009 390.155Q289.98 387.9 288.997 385.624Q288.014 383.349 287.077 381.054Q286.14 378.76 285.25 376.447Q284.359 374.134 283.515 371.804Q282.671 369.473 281.874 367.126Q281.077 364.78 280.327 362.417Q279.578 360.055 278.876 357.678Q278.174 355.301 277.52 352.91Q276.866 350.519 276.26 348.116Q275.654 345.713 275.097 343.298Q274.539 340.883 274.031 338.457Q273.522 336.031 273.062 333.596Q272.603 331.16 272.192 328.716Q271.781 326.272 271.42 323.82Q271.058 321.368 270.746 318.909C264.272 263.972 275.338 206.361 304.179 158.883C310.454 148.553 318.084 138.63 325.636 129.214C331.435 121.983 338.658 115.354 345.486 109.083Q348.63 106.168 351.872 103.363Q355.114 100.558 358.449 97.8645Q361.785 95.1715 365.211 92.5939Q368.637 90.0163 372.148 87.5573Q375.66 85.0982 379.254 82.7605Q382.848 80.4228 386.519 78.2092Q390.191 75.9957 393.936 73.9088Q397.681 71.8219 401.495 69.8641Q405.309 67.9063 409.187 66.08Q413.066 64.2536 417.005 62.5608Q420.944 60.868 424.938 59.3107Q428.932 57.7534 432.978 56.3335Q437.023 54.9135 441.114 53.6325Q445.205 52.3515 449.338 51.211Q453.471 50.0705 457.64 49.0719Q461.809 48.0732 466.01 47.2175C478.343 44.6801 491.246 44.0556 503.766 42.7098Z"/>
</svg>
